<svg id="Layer_1" data-name="Layer 1" xmlns="http://www.w3.org/2000/svg" viewBox="0 0 512 512"><defs><style>.cls-1{fill:#ffb85a;}.cls-2{opacity:0.3;}.cls-3{fill:#fff;}.cls-4{opacity:0.2;}.cls-5{fill:#757889;}.cls-6{fill:#2b374f;}</style></defs><title>bat-filled</title><path class="cls-1" d="M403.2,160A147.15,147.15,0,0,1,296.38,301.5a146,146,0,0,1-80.77,0,147.14,147.14,0,0,1,0-283,146,146,0,0,1,80.77,0A147.15,147.15,0,0,1,403.2,160Z"/><g class="cls-2"><path class="cls-3" d="M215.62,301.5a147.14,147.14,0,0,1,0-283c-37.7,32.77-62,84-62,141.5S177.92,268.74,215.62,301.5Z"/></g><g class="cls-4"><path d="M403.2,160A147.15,147.15,0,0,1,296.38,301.5c37.7-32.77,62-84,62-141.5s-24.32-108.74-62-141.5A147.15,147.15,0,0,1,403.2,160Z"/></g><path class="cls-5" d="M499.2,313.6c0,4.8-.19,9.54-.64,14.21A76.39,76.39,0,0,0,458.43,298a75.13,75.13,0,0,0-23.23-3.65,76.8,76.8,0,0,0-75.58,63.17,89.52,89.52,0,0,0-103.62,54,89.52,89.52,0,0,0-103.62-54A76.8,76.8,0,0,0,76.8,294.4,75.13,75.13,0,0,0,53.57,298a76.39,76.39,0,0,0-40.13,29.76c-.45-4.67-.64-9.41-.64-14.21A172.63,172.63,0,0,1,113.09,156.86a182.85,182.85,0,0,0,26,25.66,184.51,184.51,0,0,0,59.26,32.26v-106l38.4,38.4h38.4l38.4-38.4v106a184.51,184.51,0,0,0,59.26-32.26,182.85,182.85,0,0,0,26-25.66A172.63,172.63,0,0,1,499.2,313.6Z"/><g class="cls-2"><path class="cls-3" d="M113.09,156.86A172.63,172.63,0,0,0,12.8,313.6c0,4.8.19,9.54.64,14.21A76.39,76.39,0,0,1,53.57,298a210.53,210.53,0,0,1,85.57-115.52A182.85,182.85,0,0,1,113.09,156.86Z"/></g><g class="cls-4"><path d="M398.91,156.86a182.85,182.85,0,0,1-26,25.66A210.53,210.53,0,0,1,458.43,298a76.39,76.39,0,0,1,40.13,29.76c.45-4.67.64-9.41.64-14.21A172.63,172.63,0,0,0,398.91,156.86Z"/></g><path class="cls-6" d="M501.77,340.2A12.81,12.81,0,0,0,511.31,329c.47-4.92.69-10,.69-15.42A186.26,186.26,0,0,0,415.74,151C411.08,67,341.22,0,256,0S100.92,67,96.26,151A186.26,186.26,0,0,0,0,313.6c0,5.45.22,10.5.69,15.42A12.8,12.8,0,0,0,24,335a64,64,0,0,1,115.79,24.77A12.8,12.8,0,0,0,155.31,370a76.72,76.72,0,0,1,88.79,46.29,12.8,12.8,0,0,0,23.79,0A76.72,76.72,0,0,1,356.69,370a12.8,12.8,0,0,0,15.53-10.21A64,64,0,0,1,488,335,12.78,12.78,0,0,0,501.77,340.2ZM256,25.6c70,0,127.65,53.78,133.84,122.19-.28.28-.55.57-.8.88a172.76,172.76,0,0,1-62.64,47.53V108.8a12.8,12.8,0,0,0-21.85-9.05L269.9,134.4H242.1L207.45,99.75a12.8,12.8,0,0,0-21.85,9.05v87.39A172.76,172.76,0,0,1,123,148.67c-.26-.31-.52-.6-.8-.87C128.35,79.38,186,25.6,256,25.6Zm179.2,256A89.44,89.44,0,0,0,350.13,343,102.45,102.45,0,0,0,256,385a102.45,102.45,0,0,0-94.12-42A89.62,89.62,0,0,0,26.46,297.08,160.77,160.77,0,0,1,110,172.71,198.2,198.2,0,0,0,194.43,227a12.8,12.8,0,0,0,16.77-12.17V139.7l16.55,16.55A12.8,12.8,0,0,0,236.8,160h38.4a12.8,12.8,0,0,0,9.05-3.75L300.8,139.7v75.11A12.8,12.8,0,0,0,317.57,227,198.2,198.2,0,0,0,402,172.71a160.77,160.77,0,0,1,83.53,124.38A89.53,89.53,0,0,0,435.2,281.6Z"/><circle class="cls-6" cx="236.8" cy="192" r="12.8"/><circle class="cls-6" cx="275.2" cy="192" r="12.8"/><path class="cls-6" d="M256,448a12.8,12.8,0,0,0-12.8,12.8v38.4a12.8,12.8,0,0,0,25.6,0V460.8A12.8,12.8,0,0,0,256,448Z"/><path class="cls-6" d="M153.6,396.8a12.8,12.8,0,0,0-12.8,12.8v57.6a12.8,12.8,0,1,0,25.6,0V409.6A12.8,12.8,0,0,0,153.6,396.8Z"/><path class="cls-6" d="M12.8,364.8A12.8,12.8,0,0,0,0,377.6v57.6a12.8,12.8,0,1,0,25.6,0V377.6A12.8,12.8,0,0,0,12.8,364.8Z"/><path class="cls-6" d="M358.4,396.8a12.8,12.8,0,0,0-12.8,12.8v51.2a12.8,12.8,0,1,0,25.6,0V409.6A12.8,12.8,0,0,0,358.4,396.8Z"/><path class="cls-6" d="M499.2,364.8a12.8,12.8,0,0,0-12.8,12.8v57.6a12.8,12.8,0,1,0,25.6,0V377.6A12.8,12.8,0,0,0,499.2,364.8Z"/><path class="cls-6" d="M12.8,467.2A12.8,12.8,0,0,0,0,480v19.2a12.8,12.8,0,1,0,25.6,0V480A12.8,12.8,0,0,0,12.8,467.2Z"/><path class="cls-6" d="M499.2,467.2A12.8,12.8,0,0,0,486.4,480v19.2a12.8,12.8,0,1,0,25.6,0V480A12.8,12.8,0,0,0,499.2,467.2Z"/></svg>